{
	"asset":{
		"generator":"Khronos glTF Blender I/O v3.6.27",
		"version":"2.0"
	},
	"scene":0,
	"scenes":[
		{
			"name":"Scene",
			"nodes":[
				11
			]
		}
	],
	"nodes":[
		{
			"mesh":0,
			"name":"frame",
			"translation":[
				0,
				-1.1320090293884277,
				-2.5581984519958496
			]
		},
		{
			"name":"Bone.pedal.l",
			"rotation":[
				-0.5007180571556091,
				-0.4987654387950897,
				-0.49600157141685486,
				0.5044769048690796
			],
			"scale":[
				0.9999999403953552,
				1,
				0.9999999403953552
			],
			"translation":[
				-3.399340999524691e-15,
				0.7403351068496704,
				1.0244548320770264e-08
			]
		},
		{
			"name":"Bone.pedal.r",
			"rotation":[
				-0.507321298122406,
				0.49869397282600403,
				0.49593058228492737,
				0.4979780614376068
			],
			"scale":[
				0.9999998211860657,
				0.9999997615814209,
				0.9999998807907104
			],
			"translation":[
				1.722155196226538e-09,
				-0.7187727093696594,
				0.00844356045126915
			]
		},
		{
			"children":[
				1,
				2
			],
			"name":"Bone.wheel.f",
			"rotation":[
				-0.9965872168540955,
				-1.9699003317441566e-08,
				-3.4563903739126545e-08,
				0.08254653215408325
			],
			"scale":[
				1,
				1.0000001192092896,
				1.0000046491622925
			],
			"translation":[
				1.0658141036401503e-14,
				2.9271538257598877,
				-1.4901161193847656e-08
			]
		},
		{
			"children":[
				3
			],
			"name":"Bone.steer",
			"rotation":[
				0.9968127608299255,
				1.0902454938843675e-08,
				1.3622583594496973e-07,
				0.07977711409330368
			],
			"translation":[
				0,
				1.1710008382797241,
				-7.636845111846924e-08
			]
		},
		{
			"mesh":1,
			"name":"front.steering.stuf",
			"skin":0
		},
		{
			"mesh":2,
			"name":"pedal.left",
			"skin":0
		},
		{
			"mesh":3,
			"name":"pedal.right",
			"skin":0
		},
		{
			"name":"rotate.to.steer",
			"rotation":[
				0.7071068286895752,
				0,
				0,
				0.7071068286895752
			],
			"translation":[
				-0.027675045654177666,
				2.0892364978790283,
				0.8441680669784546
			]
		},
		{
			"mesh":4,
			"name":"wheel.front",
			"skin":0
		},
		{
			"mesh":5,
			"name":"wheels.back",
			"rotation":[
				0.05429740995168686,
				0,
				0,
				0.9985248446464539
			],
			"translation":[
				0,
				-2.164619207382202,
				-3.2301247119903564
			]
		},
		{
			"children":[
				0,
				5,
				6,
				7,
				8,
				9,
				10,
				4
			],
			"name":"Tricycle",
			"translation":[
				0,
				0,
				0.017291869968175888
			]
		}
	],
	"materials":[
		{
			"doubleSided":true,
			"name":"red",
			"pbrMetallicRoughness":{}
		},
		{
			"doubleSided":true,
			"name":"chrome",
			"pbrMetallicRoughness":{}
		},
		{
			"doubleSided":true,
			"name":"white",
			"pbrMetallicRoughness":{}
		},
		{
			"doubleSided":true,
			"name":"Black Plastic",
			"pbrMetallicRoughness":{}
		},
		{
			"doubleSided":true,
			"name":"tires",
			"pbrMetallicRoughness":{}
		}
	],
	"meshes":[
		{
			"name":"Mesh.002",
			"primitives":[
				{
					"attributes":{
						"POSITION":0,
						"NORMAL":1
					},
					"indices":2,
					"material":0
				},
				{
					"attributes":{
						"POSITION":3,
						"NORMAL":4
					},
					"indices":5,
					"material":1
				},
				{
					"attributes":{
						"POSITION":6,
						"NORMAL":7
					},
					"indices":8,
					"material":2
				}
			]
		},
		{
			"name":"Circle.001",
			"primitives":[
				{
					"attributes":{
						"POSITION":9,
						"NORMAL":10,
						"JOINTS_0":11,
						"WEIGHTS_0":12
					},
					"indices":13,
					"material":0
				},
				{
					"attributes":{
						"POSITION":14,
						"NORMAL":15,
						"JOINTS_0":16,
						"WEIGHTS_0":17
					},
					"indices":18,
					"material":3
				},
				{
					"attributes":{
						"POSITION":19,
						"NORMAL":20,
						"JOINTS_0":21,
						"WEIGHTS_0":22
					},
					"indices":23,
					"material":2
				},
				{
					"attributes":{
						"POSITION":24,
						"NORMAL":25,
						"JOINTS_0":26,
						"WEIGHTS_0":27
					},
					"indices":28,
					"material":1
				}
			]
		},
		{
			"name":"Circle.007",
			"primitives":[
				{
					"attributes":{
						"POSITION":30,
						"NORMAL":31,
						"TEXCOORD_0":32,
						"JOINTS_0":33,
						"WEIGHTS_0":34
					},
					"indices":35,
					"material":3
				}
			]
		},
		{
			"name":"Circle.006",
			"primitives":[
				{
					"attributes":{
						"POSITION":36,
						"NORMAL":37,
						"TEXCOORD_0":38,
						"JOINTS_0":39,
						"WEIGHTS_0":40
					},
					"indices":41,
					"material":3
				}
			]
		},
		{
			"name":"Circle.010",
			"primitives":[
				{
					"attributes":{
						"POSITION":42,
						"NORMAL":43,
						"TEXCOORD_0":44,
						"JOINTS_0":45,
						"WEIGHTS_0":46
					},
					"indices":47,
					"material":1
				},
				{
					"attributes":{
						"POSITION":48,
						"NORMAL":49,
						"TEXCOORD_0":50,
						"JOINTS_0":51,
						"WEIGHTS_0":52
					},
					"indices":53,
					"material":4
				},
				{
					"attributes":{
						"POSITION":54,
						"NORMAL":55,
						"TEXCOORD_0":56,
						"JOINTS_0":57,
						"WEIGHTS_0":58
					},
					"indices":59,
					"material":2
				},
				{
					"attributes":{
						"POSITION":60,
						"NORMAL":61,
						"TEXCOORD_0":62,
						"JOINTS_0":63,
						"WEIGHTS_0":64
					},
					"indices":65,
					"material":0
				}
			]
		},
		{
			"name":"Circle.000",
			"primitives":[
				{
					"attributes":{
						"POSITION":66,
						"NORMAL":67,
						"TEXCOORD_0":68
					},
					"indices":69,
					"material":4
				},
				{
					"attributes":{
						"POSITION":70,
						"NORMAL":71,
						"TEXCOORD_0":72
					},
					"indices":73,
					"material":1
				},
				{
					"attributes":{
						"POSITION":74,
						"NORMAL":75,
						"TEXCOORD_0":76
					},
					"indices":77,
					"material":2
				},
				{
					"attributes":{
						"POSITION":78,
						"NORMAL":79,
						"TEXCOORD_0":80
					},
					"indices":81,
					"material":0
				}
			]
		}
	],
	"skins":[
		{
			"inverseBindMatrices":29,
			"joints":[
				4,
				3,
				1,
				2
			],
			"name":"Tricycle"
		}
	],
	"accessors":[
		{
			"bufferView":0,
			"componentType":5126,
			"count":1754,
			"max":[
				1.7640190124511719,
				1.3302595615386963,
				2.7680373191833496
			],
			"min":[
				-1.7639566659927368,
				-0.9861670136451721,
				-1.2430137395858765
			],
			"type":"VEC3"
		},
		{
			"bufferView":1,
			"componentType":5126,
			"count":1754,
			"type":"VEC3"
		},
		{
			"bufferView":2,
			"componentType":5123,
			"count":8922,
			"type":"SCALAR"
		},
		{
			"bufferView":3,
			"componentType":5126,
			"count":632,
			"max":[
				1.8855913877487183,
				1.2070776224136353,
				0.7511617541313171
			],
			"min":[
				-1.8856226205825806,
				-0.9166451096534729,
				-0.681742787361145
			],
			"type":"VEC3"
		},
		{
			"bufferView":4,
			"componentType":5126,
			"count":632,
			"type":"VEC3"
		},
		{
			"bufferView":5,
			"componentType":5123,
			"count":3618,
			"type":"SCALAR"
		},
		{
			"bufferView":6,
			"componentType":5126,
			"count":892,
			"max":[
				1.7640190124511719,
				1.48300039768219,
				2.7827534675598145
			],
			"min":[
				-1.7639566659927368,
				-0.9134436249732971,
				-1.2430137395858765
			],
			"type":"VEC3"
		},
		{
			"bufferView":7,
			"componentType":5126,
			"count":892,
			"type":"VEC3"
		},
		{
			"bufferView":8,
			"componentType":5123,
			"count":4272,
			"type":"SCALAR"
		},
		{
			"bufferView":9,
			"componentType":5126,
			"count":518,
			"max":[
				0.27358731627464294,
				0.5320430994033813,
				0.5459944009780884
			],
			"min":[
				-0.32893702387809753,
				-1.7805010080337524,
				-0.12768550217151642
			],
			"type":"VEC3"
		},
		{
			"bufferView":10,
			"componentType":5126,
			"count":518,
			"type":"VEC3"
		},
		{
			"bufferView":11,
			"componentType":5121,
			"count":518,
			"type":"VEC4"
		},
		{
			"bufferView":12,
			"componentType":5126,
			"count":518,
			"type":"VEC4"
		},
		{
			"bufferView":13,
			"componentType":5123,
			"count":2664,
			"type":"SCALAR"
		},
		{
			"bufferView":14,
			"componentType":5126,
			"count":1848,
			"max":[
				1.5931708812713623,
				1.6605051755905151,
				-0.06364977359771729
			],
			"min":[
				-1.6485917568206787,
				0.3783515691757202,
				-0.9693863391876221
			],
			"type":"VEC3"
		},
		{
			"bufferView":15,
			"componentType":5126,
			"count":1848,
			"type":"VEC3"
		},
		{
			"bufferView":16,
			"componentType":5121,
			"count":1848,
			"type":"VEC4"
		},
		{
			"bufferView":17,
			"componentType":5126,
			"count":1848,
			"type":"VEC4"
		},
		{
			"bufferView":18,
			"componentType":5123,
			"count":10686,
			"type":"SCALAR"
		},
		{
			"bufferView":19,
			"componentType":5126,
			"count":42,
			"max":[
				0.26939263939857483,
				-0.33576852083206177,
				0.5225708484649658
			],
			"min":[
				-0.3247423470020294,
				-1.760201096534729,
				-0.02347566932439804
			],
			"type":"VEC3"
		},
		{
			"bufferView":20,
			"componentType":5126,
			"count":42,
			"type":"VEC3"
		},
		{
			"bufferView":21,
			"componentType":5121,
			"count":42,
			"type":"VEC4"
		},
		{
			"bufferView":22,
			"componentType":5126,
			"count":42,
			"type":"VEC4"
		},
		{
			"bufferView":23,
			"componentType":5123,
			"count":120,
			"type":"SCALAR"
		},
		{
			"bufferView":24,
			"componentType":5126,
			"count":1557,
			"max":[
				1.5793333053588867,
				1.6574660539627075,
				1.1876689195632935
			],
			"min":[
				-1.6347551345825195,
				-1.410853385925293,
				-0.7976239919662476
			],
			"type":"VEC3"
		},
		{
			"bufferView":25,
			"componentType":5126,
			"count":1557,
			"type":"VEC3"
		},
		{
			"bufferView":26,
			"componentType":5121,
			"count":1557,
			"type":"VEC4"
		},
		{
			"bufferView":27,
			"componentType":5126,
			"count":1557,
			"type":"VEC4"
		},
		{
			"bufferView":28,
			"componentType":5123,
			"count":8928,
			"type":"SCALAR"
		},
		{
			"bufferView":29,
			"componentType":5126,
			"count":4,
			"type":"MAT4"
		},
		{
			"bufferView":30,
			"componentType":5126,
			"count":110,
			"max":[
				1.101210117340088,
				-0.9182635545730591,
				0.6816719770431519
			],
			"min":[
				0.5917410850524902,
				-1.0377953052520752,
				0.2840002179145813
			],
			"type":"VEC3"
		},
		{
			"bufferView":31,
			"componentType":5126,
			"count":110,
			"type":"VEC3"
		},
		{
			"bufferView":32,
			"componentType":5126,
			"count":110,
			"type":"VEC2"
		},
		{
			"bufferView":33,
			"componentType":5121,
			"count":110,
			"type":"VEC4"
		},
		{
			"bufferView":34,
			"componentType":5126,
			"count":110,
			"type":"VEC4"
		},
		{
			"bufferView":35,
			"componentType":5123,
			"count":672,
			"type":"SCALAR"
		},
		{
			"bufferView":36,
			"componentType":5126,
			"count":110,
			"max":[
				-0.6315558552742004,
				-2.3964617252349854,
				0.6816717386245728
			],
			"min":[
				-1.1410248279571533,
				-2.490398406982422,
				0.2840000092983246
			],
			"type":"VEC3"
		},
		{
			"bufferView":37,
			"componentType":5126,
			"count":110,
			"type":"VEC3"
		},
		{
			"bufferView":38,
			"componentType":5126,
			"count":110,
			"type":"VEC2"
		},
		{
			"bufferView":39,
			"componentType":5121,
			"count":110,
			"type":"VEC4"
		},
		{
			"bufferView":40,
			"componentType":5126,
			"count":110,
			"type":"VEC4"
		},
		{
			"bufferView":41,
			"componentType":5123,
			"count":672,
			"type":"SCALAR"
		},
		{
			"bufferView":42,
			"componentType":5126,
			"count":1224,
			"max":[
				0.6060572266578674,
				-0.6727896928787231,
				1.5316227674484253
			],
			"min":[
				-0.6625967621803284,
				-2.768456220626831,
				-0.5640438795089722
			],
			"type":"VEC3"
		},
		{
			"bufferView":43,
			"componentType":5126,
			"count":1224,
			"type":"VEC3"
		},
		{
			"bufferView":44,
			"componentType":5126,
			"count":1224,
			"type":"VEC2"
		},
		{
			"bufferView":45,
			"componentType":5121,
			"count":1224,
			"type":"VEC4"
		},
		{
			"bufferView":46,
			"componentType":5126,
			"count":1224,
			"type":"VEC4"
		},
		{
			"bufferView":47,
			"componentType":5123,
			"count":6771,
			"type":"SCALAR"
		},
		{
			"bufferView":48,
			"componentType":5126,
			"count":3008,
			"max":[
				0.27810192108154297,
				-0.4500720798969269,
				1.754340410232544
			],
			"min":[
				-0.3342810273170471,
				-2.991173505783081,
				-0.7867613434791565
			],
			"type":"VEC3"
		},
		{
			"bufferView":49,
			"componentType":5126,
			"count":3008,
			"type":"VEC3"
		},
		{
			"bufferView":50,
			"componentType":5126,
			"count":3008,
			"type":"VEC2"
		},
		{
			"bufferView":51,
			"componentType":5121,
			"count":3008,
			"type":"VEC4"
		},
		{
			"bufferView":52,
			"componentType":5126,
			"count":3008,
			"type":"VEC4"
		},
		{
			"bufferView":53,
			"componentType":5123,
			"count":15552,
			"type":"SCALAR"
		},
		{
			"bufferView":54,
			"componentType":5126,
			"count":1224,
			"max":[
				0.21686801314353943,
				-0.73214191198349,
				1.4843780994415283
			],
			"min":[
				-0.276638001203537,
				-2.711723566055298,
				-0.5167782306671143
			],
			"type":"VEC3"
		},
		{
			"bufferView":55,
			"componentType":5126,
			"count":1224,
			"type":"VEC3"
		},
		{
			"bufferView":56,
			"componentType":5126,
			"count":1224,
			"type":"VEC2"
		},
		{
			"bufferView":57,
			"componentType":5121,
			"count":1224,
			"type":"VEC4"
		},
		{
			"bufferView":58,
			"componentType":5126,
			"count":1224,
			"type":"VEC4"
		},
		{
			"bufferView":59,
			"componentType":5123,
			"count":6960,
			"type":"SCALAR"
		},
		{
			"bufferView":60,
			"componentType":5126,
			"count":720,
			"max":[
				0.21972553431987762,
				-1.4824687242507935,
				0.721943199634552
			],
			"min":[
				-0.2766362726688385,
				-1.958776831626892,
				0.24563516676425934
			],
			"type":"VEC3"
		},
		{
			"bufferView":61,
			"componentType":5126,
			"count":720,
			"type":"VEC3"
		},
		{
			"bufferView":62,
			"componentType":5126,
			"count":720,
			"type":"VEC2"
		},
		{
			"bufferView":63,
			"componentType":5121,
			"count":720,
			"type":"VEC4"
		},
		{
			"bufferView":64,
			"componentType":5126,
			"count":720,
			"type":"VEC4"
		},
		{
			"bufferView":65,
			"componentType":5123,
			"count":4032,
			"type":"SCALAR"
		},
		{
			"bufferView":66,
			"componentType":5126,
			"count":5200,
			"max":[
				2.3141071796417236,
				0.8205991983413696,
				0.8210411071777344
			],
			"min":[
				-2.314105272293091,
				-0.820666491985321,
				-0.8202251195907593
			],
			"type":"VEC3"
		},
		{
			"bufferView":67,
			"componentType":5126,
			"count":5200,
			"type":"VEC3"
		},
		{
			"bufferView":68,
			"componentType":5126,
			"count":5200,
			"type":"VEC2"
		},
		{
			"bufferView":69,
			"componentType":5123,
			"count":27072,
			"type":"SCALAR"
		},
		{
			"bufferView":70,
			"componentType":5126,
			"count":1704,
			"max":[
				2.2953619956970215,
				0.6372048854827881,
				0.6376469135284424
			],
			"min":[
				-2.2953600883483887,
				-0.637272298336029,
				-0.6368311643600464
			],
			"type":"VEC3"
		},
		{
			"bufferView":71,
			"componentType":5126,
			"count":1704,
			"type":"VEC3"
		},
		{
			"bufferView":72,
			"componentType":5126,
			"count":1704,
			"type":"VEC2"
		},
		{
			"bufferView":73,
			"componentType":5123,
			"count":9504,
			"type":"SCALAR"
		},
		{
			"bufferView":74,
			"componentType":5126,
			"count":1920,
			"max":[
				2.4037132263183594,
				0.5858591198921204,
				0.6114959716796875
			],
			"min":[
				-2.4037113189697266,
				-0.5879856944084167,
				-0.6106818914413452
			],
			"type":"VEC3"
		},
		{
			"bufferView":75,
			"componentType":5126,
			"count":1920,
			"type":"VEC3"
		},
		{
			"bufferView":76,
			"componentType":5126,
			"count":1920,
			"type":"VEC2"
		},
		{
			"bufferView":77,
			"componentType":5123,
			"count":11040,
			"type":"SCALAR"
		},
		{
			"bufferView":78,
			"componentType":5126,
			"count":3312,
			"max":[
				2.407618284225464,
				0.14561708271503448,
				0.14605854451656342
			],
			"min":[
				-2.407616376876831,
				-0.1456844061613083,
				-0.145243301987648
			],
			"type":"VEC3"
		},
		{
			"bufferView":79,
			"componentType":5126,
			"count":3312,
			"type":"VEC3"
		},
		{
			"bufferView":80,
			"componentType":5126,
			"count":3312,
			"type":"VEC2"
		},
		{
			"bufferView":81,
			"componentType":5123,
			"count":11652,
			"type":"SCALAR"
		}
	],
	"bufferViews":[
		{
			"buffer":0,
			"byteLength":21048,
			"byteOffset":0,
			"target":34962
		},
		{
			"buffer":0,
			"byteLength":21048,
			"byteOffset":21048,
			"target":34962
		},
		{
			"buffer":0,
			"byteLength":17844,
			"byteOffset":42096,
			"target":34963
		},
		{
			"buffer":0,
			"byteLength":7584,
			"byteOffset":59940,
			"target":34962
		},
		{
			"buffer":0,
			"byteLength":7584,
			"byteOffset":67524,
			"target":34962
		},
		{
			"buffer":0,
			"byteLength":7236,
			"byteOffset":75108,
			"target":34963
		},
		{
			"buffer":0,
			"byteLength":10704,
			"byteOffset":82344,
			"target":34962
		},
		{
			"buffer":0,
			"byteLength":10704,
			"byteOffset":93048,
			"target":34962
		},
		{
			"buffer":0,
			"byteLength":8544,
			"byteOffset":103752,
			"target":34963
		},
		{
			"buffer":0,
			"byteLength":6216,
			"byteOffset":112296,
			"target":34962
		},
		{
			"buffer":0,
			"byteLength":6216,
			"byteOffset":118512,
			"target":34962
		},
		{
			"buffer":0,
			"byteLength":2072,
			"byteOffset":124728,
			"target":34962
		},
		{
			"buffer":0,
			"byteLength":8288,
			"byteOffset":126800,
			"target":34962
		},
		{
			"buffer":0,
			"byteLength":5328,
			"byteOffset":135088,
			"target":34963
		},
		{
			"buffer":0,
			"byteLength":22176,
			"byteOffset":140416,
			"target":34962
		},
		{
			"buffer":0,
			"byteLength":22176,
			"byteOffset":162592,
			"target":34962
		},
		{
			"buffer":0,
			"byteLength":7392,
			"byteOffset":184768,
			"target":34962
		},
		{
			"buffer":0,
			"byteLength":29568,
			"byteOffset":192160,
			"target":34962
		},
		{
			"buffer":0,
			"byteLength":21372,
			"byteOffset":221728,
			"target":34963
		},
		{
			"buffer":0,
			"byteLength":504,
			"byteOffset":243100,
			"target":34962
		},
		{
			"buffer":0,
			"byteLength":504,
			"byteOffset":243604,
			"target":34962
		},
		{
			"buffer":0,
			"byteLength":168,
			"byteOffset":244108,
			"target":34962
		},
		{
			"buffer":0,
			"byteLength":672,
			"byteOffset":244276,
			"target":34962
		},
		{
			"buffer":0,
			"byteLength":240,
			"byteOffset":244948,
			"target":34963
		},
		{
			"buffer":0,
			"byteLength":18684,
			"byteOffset":245188,
			"target":34962
		},
		{
			"buffer":0,
			"byteLength":18684,
			"byteOffset":263872,
			"target":34962
		},
		{
			"buffer":0,
			"byteLength":6228,
			"byteOffset":282556,
			"target":34962
		},
		{
			"buffer":0,
			"byteLength":24912,
			"byteOffset":288784,
			"target":34962
		},
		{
			"buffer":0,
			"byteLength":17856,
			"byteOffset":313696,
			"target":34963
		},
		{
			"buffer":0,
			"byteLength":256,
			"byteOffset":331552
		},
		{
			"buffer":0,
			"byteLength":1320,
			"byteOffset":331808,
			"target":34962
		},
		{
			"buffer":0,
			"byteLength":1320,
			"byteOffset":333128,
			"target":34962
		},
		{
			"buffer":0,
			"byteLength":880,
			"byteOffset":334448,
			"target":34962
		},
		{
			"buffer":0,
			"byteLength":440,
			"byteOffset":335328,
			"target":34962
		},
		{
			"buffer":0,
			"byteLength":1760,
			"byteOffset":335768,
			"target":34962
		},
		{
			"buffer":0,
			"byteLength":1344,
			"byteOffset":337528,
			"target":34963
		},
		{
			"buffer":0,
			"byteLength":1320,
			"byteOffset":338872,
			"target":34962
		},
		{
			"buffer":0,
			"byteLength":1320,
			"byteOffset":340192,
			"target":34962
		},
		{
			"buffer":0,
			"byteLength":880,
			"byteOffset":341512,
			"target":34962
		},
		{
			"buffer":0,
			"byteLength":440,
			"byteOffset":342392,
			"target":34962
		},
		{
			"buffer":0,
			"byteLength":1760,
			"byteOffset":342832,
			"target":34962
		},
		{
			"buffer":0,
			"byteLength":1344,
			"byteOffset":344592,
			"target":34963
		},
		{
			"buffer":0,
			"byteLength":14688,
			"byteOffset":345936,
			"target":34962
		},
		{
			"buffer":0,
			"byteLength":14688,
			"byteOffset":360624,
			"target":34962
		},
		{
			"buffer":0,
			"byteLength":9792,
			"byteOffset":375312,
			"target":34962
		},
		{
			"buffer":0,
			"byteLength":4896,
			"byteOffset":385104,
			"target":34962
		},
		{
			"buffer":0,
			"byteLength":19584,
			"byteOffset":390000,
			"target":34962
		},
		{
			"buffer":0,
			"byteLength":13542,
			"byteOffset":409584,
			"target":34963
		},
		{
			"buffer":0,
			"byteLength":36096,
			"byteOffset":423128,
			"target":34962
		},
		{
			"buffer":0,
			"byteLength":36096,
			"byteOffset":459224,
			"target":34962
		},
		{
			"buffer":0,
			"byteLength":24064,
			"byteOffset":495320,
			"target":34962
		},
		{
			"buffer":0,
			"byteLength":12032,
			"byteOffset":519384,
			"target":34962
		},
		{
			"buffer":0,
			"byteLength":48128,
			"byteOffset":531416,
			"target":34962
		},
		{
			"buffer":0,
			"byteLength":31104,
			"byteOffset":579544,
			"target":34963
		},
		{
			"buffer":0,
			"byteLength":14688,
			"byteOffset":610648,
			"target":34962
		},
		{
			"buffer":0,
			"byteLength":14688,
			"byteOffset":625336,
			"target":34962
		},
		{
			"buffer":0,
			"byteLength":9792,
			"byteOffset":640024,
			"target":34962
		},
		{
			"buffer":0,
			"byteLength":4896,
			"byteOffset":649816,
			"target":34962
		},
		{
			"buffer":0,
			"byteLength":19584,
			"byteOffset":654712,
			"target":34962
		},
		{
			"buffer":0,
			"byteLength":13920,
			"byteOffset":674296,
			"target":34963
		},
		{
			"buffer":0,
			"byteLength":8640,
			"byteOffset":688216,
			"target":34962
		},
		{
			"buffer":0,
			"byteLength":8640,
			"byteOffset":696856,
			"target":34962
		},
		{
			"buffer":0,
			"byteLength":5760,
			"byteOffset":705496,
			"target":34962
		},
		{
			"buffer":0,
			"byteLength":2880,
			"byteOffset":711256,
			"target":34962
		},
		{
			"buffer":0,
			"byteLength":11520,
			"byteOffset":714136,
			"target":34962
		},
		{
			"buffer":0,
			"byteLength":8064,
			"byteOffset":725656,
			"target":34963
		},
		{
			"buffer":0,
			"byteLength":62400,
			"byteOffset":733720,
			"target":34962
		},
		{
			"buffer":0,
			"byteLength":62400,
			"byteOffset":796120,
			"target":34962
		},
		{
			"buffer":0,
			"byteLength":41600,
			"byteOffset":858520,
			"target":34962
		},
		{
			"buffer":0,
			"byteLength":54144,
			"byteOffset":900120,
			"target":34963
		},
		{
			"buffer":0,
			"byteLength":20448,
			"byteOffset":954264,
			"target":34962
		},
		{
			"buffer":0,
			"byteLength":20448,
			"byteOffset":974712,
			"target":34962
		},
		{
			"buffer":0,
			"byteLength":13632,
			"byteOffset":995160,
			"target":34962
		},
		{
			"buffer":0,
			"byteLength":19008,
			"byteOffset":1008792,
			"target":34963
		},
		{
			"buffer":0,
			"byteLength":23040,
			"byteOffset":1027800,
			"target":34962
		},
		{
			"buffer":0,
			"byteLength":23040,
			"byteOffset":1050840,
			"target":34962
		},
		{
			"buffer":0,
			"byteLength":15360,
			"byteOffset":1073880,
			"target":34962
		},
		{
			"buffer":0,
			"byteLength":22080,
			"byteOffset":1089240,
			"target":34963
		},
		{
			"buffer":0,
			"byteLength":39744,
			"byteOffset":1111320,
			"target":34962
		},
		{
			"buffer":0,
			"byteLength":39744,
			"byteOffset":1151064,
			"target":34962
		},
		{
			"buffer":0,
			"byteLength":26496,
			"byteOffset":1190808,
			"target":34962
		},
		{
			"buffer":0,
			"byteLength":23304,
			"byteOffset":1217304,
			"target":34963
		}
	],
	"buffers":[
		{
			"byteLength":1240608,
			"uri":"tricycle-with-armature%203.bin"
		}
	]
}
